%TF.GenerationSoftware,KiCad,Pcbnew,8.0.7*%
%TF.CreationDate,2025-05-26T13:39:32+05:30*%
%TF.ProjectId,smart_board,736d6172-745f-4626-9f61-72642e6b6963,rev?*%
%TF.SameCoordinates,Original*%
%TF.FileFunction,Plated,1,2,PTH,Drill*%
%TF.FilePolarity,Positive*%
%FSLAX46Y46*%
G04 Gerber Fmt 4.6, Leading zero omitted, Abs format (unit mm)*
G04 Created by KiCad (PCBNEW 8.0.7) date 2025-05-26 13:39:32*
%MOMM*%
%LPD*%
G01*
G04 APERTURE LIST*
%TA.AperFunction,ComponentDrill*%
%ADD10C,0.200000*%
%TD*%
%TA.AperFunction,ViaDrill*%
%ADD11C,0.300000*%
%TD*%
%TA.AperFunction,ComponentDrill*%
%ADD12C,0.750000*%
%TD*%
%TA.AperFunction,ComponentDrill*%
%ADD13C,0.800000*%
%TD*%
%TA.AperFunction,ComponentDrill*%
%ADD14C,1.000000*%
%TD*%
%TA.AperFunction,ComponentDrill*%
%ADD15C,1.100000*%
%TD*%
%TA.AperFunction,ComponentDrill*%
%ADD16C,1.300000*%
%TD*%
G04 APERTURE END LIST*
D10*
%TO.C,U1*%
X79825000Y-64675000D03*
X79825000Y-66075000D03*
X80525000Y-63975000D03*
X80525000Y-65375000D03*
X80525000Y-66775000D03*
X81200000Y-64675000D03*
X81200000Y-66075000D03*
X81925000Y-63975000D03*
X81925000Y-65375000D03*
X81925000Y-66775000D03*
X82625000Y-64675000D03*
X82625000Y-66075000D03*
%TD*%
D11*
X68100000Y-78850000D03*
X72300000Y-73400000D03*
X75175000Y-75400000D03*
X76000000Y-69300000D03*
X76100000Y-70800000D03*
X76100000Y-72000000D03*
X76425000Y-57900000D03*
X77975000Y-62250000D03*
X84725000Y-61675000D03*
X88800000Y-59075000D03*
X90200000Y-82100000D03*
X93100000Y-60100000D03*
X93400000Y-74575000D03*
X93600000Y-72600000D03*
X94200000Y-68400000D03*
X94400000Y-65500000D03*
X94400000Y-70800000D03*
X96300000Y-72900000D03*
D12*
%TO.C,T2*%
X100200000Y-104700000D03*
X100200000Y-105970000D03*
X100200000Y-107240000D03*
%TO.C,T3*%
X100360000Y-120930000D03*
X100360000Y-122200000D03*
X100360000Y-123470000D03*
%TO.C,T1*%
X100475000Y-88385000D03*
X100475000Y-89655000D03*
X100475000Y-90925000D03*
%TO.C,T4*%
X100600000Y-136860000D03*
X100600000Y-138130000D03*
X100600000Y-139400000D03*
D13*
%TO.C,D3*%
X98400000Y-110400000D03*
X98400000Y-118020000D03*
%TO.C,D2*%
X98560000Y-77695000D03*
X98560000Y-85315000D03*
%TO.C,D1*%
X98600000Y-94280000D03*
X98600000Y-101900000D03*
%TO.C,D4*%
X98600000Y-126400000D03*
X98600000Y-134020000D03*
%TO.C,R3*%
X101200000Y-110400000D03*
X101200000Y-118020000D03*
%TO.C,R1*%
X101360000Y-77720000D03*
X101360000Y-85340000D03*
%TO.C,R2*%
X101400000Y-94280000D03*
X101400000Y-101900000D03*
%TO.C,R4*%
X101400000Y-126390000D03*
X101400000Y-134010000D03*
D14*
%TO.C,K1*%
X91750000Y-78975000D03*
X91750000Y-90975000D03*
%TO.C,K2*%
X91750000Y-94950000D03*
X91750000Y-106950000D03*
%TO.C,K3*%
X91750000Y-110850000D03*
X91750000Y-122850000D03*
%TO.C,K4*%
X91800000Y-126800000D03*
X91800000Y-138800000D03*
%TO.C,J4*%
X95545000Y-58975000D03*
X95545000Y-61515000D03*
X98085000Y-58975000D03*
X98085000Y-61515000D03*
X100625000Y-58975000D03*
X100625000Y-61515000D03*
D15*
%TO.C,J1*%
X67940000Y-73660000D03*
X67940000Y-76200000D03*
%TO.C,J2*%
X98850000Y-65530000D03*
X98850000Y-68070000D03*
X98850000Y-70610000D03*
X98850000Y-73150000D03*
D16*
%TO.C,J6*%
X69295000Y-114455000D03*
X69295000Y-119535000D03*
%TO.C,J3*%
X69395000Y-82630000D03*
X69395000Y-87710000D03*
%TO.C,J5*%
X69400000Y-97720000D03*
X69400000Y-102800000D03*
%TO.C,J7*%
X69400000Y-129700000D03*
X69400000Y-134780000D03*
%TO.C,K1*%
X79500000Y-91025000D03*
%TO.C,K2*%
X79500000Y-107000000D03*
%TO.C,K3*%
X79500000Y-122900000D03*
%TO.C,K1*%
X79550000Y-78975000D03*
%TO.C,K2*%
X79550000Y-94950000D03*
%TO.C,K3*%
X79550000Y-110850000D03*
%TO.C,K4*%
X79550000Y-138850000D03*
X79600000Y-126800000D03*
%TO.C,K1*%
X93700000Y-85025000D03*
%TO.C,K2*%
X93700000Y-101000000D03*
%TO.C,K3*%
X93700000Y-116900000D03*
%TO.C,K4*%
X93750000Y-132850000D03*
M02*
