%TF.GenerationSoftware,KiCad,Pcbnew,8.0.7*%
%TF.CreationDate,2025-05-26T13:39:26+05:30*%
%TF.ProjectId,smart_board,736d6172-745f-4626-9f61-72642e6b6963,rev?*%
%TF.SameCoordinates,Original*%
%TF.FileFunction,Soldermask,Bot*%
%TF.FilePolarity,Negative*%
%FSLAX46Y46*%
G04 Gerber Fmt 4.6, Leading zero omitted, Abs format (unit mm)*
G04 Created by KiCad (PCBNEW 8.0.7) date 2025-05-26 13:39:26*
%MOMM*%
%LPD*%
G01*
G04 APERTURE LIST*
%ADD10R,1.500000X1.050000*%
%ADD11O,1.500000X1.050000*%
%ADD12C,1.600000*%
%ADD13O,1.600000X1.600000*%
%ADD14C,2.500000*%
%ADD15C,3.000000*%
%ADD16R,2.600000X2.600000*%
%ADD17C,2.600000*%
%ADD18R,1.600000X1.600000*%
%ADD19R,2.200000X2.200000*%
%ADD20C,2.200000*%
%ADD21R,1.700000X1.700000*%
%ADD22O,1.700000X1.700000*%
%ADD23C,1.100000*%
G04 APERTURE END LIST*
D10*
%TO.C,T4*%
X100600000Y-139400000D03*
D11*
X100600000Y-138130000D03*
X100600000Y-136860000D03*
%TD*%
D10*
%TO.C,T3*%
X100360000Y-123470000D03*
D11*
X100360000Y-122200000D03*
X100360000Y-120930000D03*
%TD*%
D10*
%TO.C,T2*%
X100200000Y-107240000D03*
D11*
X100200000Y-105970000D03*
X100200000Y-104700000D03*
%TD*%
D12*
%TO.C,R4*%
X101400000Y-134010000D03*
D13*
X101400000Y-126390000D03*
%TD*%
D12*
%TO.C,R3*%
X101200000Y-118020000D03*
D13*
X101200000Y-110400000D03*
%TD*%
D12*
%TO.C,R2*%
X101400000Y-101900000D03*
D13*
X101400000Y-94280000D03*
%TD*%
D14*
%TO.C,K4*%
X91800000Y-138800000D03*
D15*
X79550000Y-138850000D03*
X79600000Y-126800000D03*
D14*
X91800000Y-126800000D03*
D15*
X93750000Y-132850000D03*
%TD*%
%TO.C,K3*%
X93700000Y-116900000D03*
D14*
X91750000Y-110850000D03*
D15*
X79550000Y-110850000D03*
X79500000Y-122900000D03*
D14*
X91750000Y-122850000D03*
%TD*%
D15*
%TO.C,K2*%
X93700000Y-101000000D03*
D14*
X91750000Y-94950000D03*
D15*
X79550000Y-94950000D03*
X79500000Y-107000000D03*
D14*
X91750000Y-106950000D03*
%TD*%
D16*
%TO.C,J7*%
X69400000Y-129700000D03*
D17*
X69400000Y-134780000D03*
%TD*%
D16*
%TO.C,J6*%
X69295000Y-114455000D03*
D17*
X69295000Y-119535000D03*
%TD*%
D16*
%TO.C,J5*%
X69400000Y-97720000D03*
D17*
X69400000Y-102800000D03*
%TD*%
D18*
%TO.C,D4*%
X98600000Y-134020000D03*
D13*
X98600000Y-126400000D03*
%TD*%
D18*
%TO.C,D3*%
X98400000Y-118020000D03*
D13*
X98400000Y-110400000D03*
%TD*%
D18*
%TO.C,D1*%
X98600000Y-101900000D03*
D13*
X98600000Y-94280000D03*
%TD*%
D19*
%TO.C,J2*%
X98850000Y-73150000D03*
D20*
X98850000Y-70610000D03*
X98850000Y-68070000D03*
X98850000Y-65530000D03*
%TD*%
D15*
%TO.C,K1*%
X93700000Y-85025000D03*
D14*
X91750000Y-78975000D03*
D15*
X79550000Y-78975000D03*
X79500000Y-91025000D03*
D14*
X91750000Y-90975000D03*
%TD*%
D12*
%TO.C,R1*%
X101360000Y-77720000D03*
D13*
X101360000Y-85340000D03*
%TD*%
D18*
%TO.C,D2*%
X98560000Y-85315000D03*
D13*
X98560000Y-77695000D03*
%TD*%
D10*
%TO.C,T1*%
X100475000Y-90925000D03*
D11*
X100475000Y-89655000D03*
X100475000Y-88385000D03*
%TD*%
D16*
%TO.C,J3*%
X69395000Y-82630000D03*
D17*
X69395000Y-87710000D03*
%TD*%
D21*
%TO.C,J4*%
X95545000Y-61515000D03*
D22*
X95545000Y-58975000D03*
X98085000Y-61515000D03*
X98085000Y-58975000D03*
X100625000Y-61515000D03*
X100625000Y-58975000D03*
%TD*%
D23*
%TO.C,J1*%
X65400000Y-73660000D03*
X65400000Y-76200000D03*
D19*
X67940000Y-73660000D03*
D20*
X67940000Y-76200000D03*
%TD*%
M02*
