%TF.GenerationSoftware,KiCad,Pcbnew,8.0.7*%
%TF.CreationDate,2025-05-26T13:39:25+05:30*%
%TF.ProjectId,smart_board,736d6172-745f-4626-9f61-72642e6b6963,rev?*%
%TF.SameCoordinates,Original*%
%TF.FileFunction,Copper,L1,Top*%
%TF.FilePolarity,Positive*%
%FSLAX46Y46*%
G04 Gerber Fmt 4.6, Leading zero omitted, Abs format (unit mm)*
G04 Created by KiCad (PCBNEW 8.0.7) date 2025-05-26 13:39:25*
%MOMM*%
%LPD*%
G01*
G04 APERTURE LIST*
G04 Aperture macros list*
%AMRoundRect*
0 Rectangle with rounded corners*
0 $1 Rounding radius*
0 $2 $3 $4 $5 $6 $7 $8 $9 X,Y pos of 4 corners*
0 Add a 4 corners polygon primitive as box body*
4,1,4,$2,$3,$4,$5,$6,$7,$8,$9,$2,$3,0*
0 Add four circle primitives for the rounded corners*
1,1,$1+$1,$2,$3*
1,1,$1+$1,$4,$5*
1,1,$1+$1,$6,$7*
1,1,$1+$1,$8,$9*
0 Add four rect primitives between the rounded corners*
20,1,$1+$1,$2,$3,$4,$5,0*
20,1,$1+$1,$4,$5,$6,$7,0*
20,1,$1+$1,$6,$7,$8,$9,0*
20,1,$1+$1,$8,$9,$2,$3,0*%
G04 Aperture macros list end*
%TA.AperFunction,ComponentPad*%
%ADD10R,1.500000X1.050000*%
%TD*%
%TA.AperFunction,ComponentPad*%
%ADD11O,1.500000X1.050000*%
%TD*%
%TA.AperFunction,ComponentPad*%
%ADD12C,1.600000*%
%TD*%
%TA.AperFunction,ComponentPad*%
%ADD13O,1.600000X1.600000*%
%TD*%
%TA.AperFunction,ComponentPad*%
%ADD14C,2.500000*%
%TD*%
%TA.AperFunction,ComponentPad*%
%ADD15C,3.000000*%
%TD*%
%TA.AperFunction,ComponentPad*%
%ADD16R,2.600000X2.600000*%
%TD*%
%TA.AperFunction,ComponentPad*%
%ADD17C,2.600000*%
%TD*%
%TA.AperFunction,ComponentPad*%
%ADD18R,1.600000X1.600000*%
%TD*%
%TA.AperFunction,SMDPad,CuDef*%
%ADD19R,1.500000X0.900000*%
%TD*%
%TA.AperFunction,SMDPad,CuDef*%
%ADD20R,0.900000X1.500000*%
%TD*%
%TA.AperFunction,SMDPad,CuDef*%
%ADD21R,0.900000X0.900000*%
%TD*%
%TA.AperFunction,HeatsinkPad*%
%ADD22C,0.600000*%
%TD*%
%TA.AperFunction,SMDPad,CuDef*%
%ADD23R,3.800000X3.800000*%
%TD*%
%TA.AperFunction,SMDPad,CuDef*%
%ADD24RoundRect,0.237500X0.237500X-0.300000X0.237500X0.300000X-0.237500X0.300000X-0.237500X-0.300000X0*%
%TD*%
%TA.AperFunction,SMDPad,CuDef*%
%ADD25RoundRect,0.375000X0.375000X-0.625000X0.375000X0.625000X-0.375000X0.625000X-0.375000X-0.625000X0*%
%TD*%
%TA.AperFunction,SMDPad,CuDef*%
%ADD26RoundRect,0.500000X1.400000X-0.500000X1.400000X0.500000X-1.400000X0.500000X-1.400000X-0.500000X0*%
%TD*%
%TA.AperFunction,ComponentPad*%
%ADD27R,2.200000X2.200000*%
%TD*%
%TA.AperFunction,ComponentPad*%
%ADD28C,2.200000*%
%TD*%
%TA.AperFunction,ComponentPad*%
%ADD29R,1.700000X1.700000*%
%TD*%
%TA.AperFunction,ComponentPad*%
%ADD30O,1.700000X1.700000*%
%TD*%
%TA.AperFunction,ViaPad*%
%ADD31C,0.600000*%
%TD*%
%TA.AperFunction,Conductor*%
%ADD32C,0.300000*%
%TD*%
%TA.AperFunction,Conductor*%
%ADD33C,2.400000*%
%TD*%
%TA.AperFunction,Conductor*%
%ADD34C,0.200000*%
%TD*%
G04 APERTURE END LIST*
D10*
%TO.P,T4,1,E*%
%TO.N,PS_GND*%
X100600000Y-139400000D03*
D11*
%TO.P,T4,2,B*%
%TO.N,Net-(T4-B)*%
X100600000Y-138130000D03*
%TO.P,T4,3,C*%
%TO.N,Net-(D4-A)*%
X100600000Y-136860000D03*
%TD*%
D10*
%TO.P,T3,1,E*%
%TO.N,PS_GND*%
X100360000Y-123470000D03*
D11*
%TO.P,T3,2,B*%
%TO.N,Net-(T3-B)*%
X100360000Y-122200000D03*
%TO.P,T3,3,C*%
%TO.N,Net-(D3-A)*%
X100360000Y-120930000D03*
%TD*%
D10*
%TO.P,T2,1,E*%
%TO.N,PS_GND*%
X100200000Y-107240000D03*
D11*
%TO.P,T2,2,B*%
%TO.N,Net-(T2-B)*%
X100200000Y-105970000D03*
%TO.P,T2,3,C*%
%TO.N,Net-(D1-A)*%
X100200000Y-104700000D03*
%TD*%
D12*
%TO.P,R4,1*%
%TO.N,/RelayCircuit4/ACT-X*%
X101400000Y-134010000D03*
D13*
%TO.P,R4,2*%
%TO.N,Net-(T4-B)*%
X101400000Y-126390000D03*
%TD*%
D12*
%TO.P,R3,1*%
%TO.N,/RelayCircuit3/ACT-X*%
X101200000Y-118020000D03*
D13*
%TO.P,R3,2*%
%TO.N,Net-(T3-B)*%
X101200000Y-110400000D03*
%TD*%
D12*
%TO.P,R2,1*%
%TO.N,/RelayCircuit2/ACT-X*%
X101400000Y-101900000D03*
D13*
%TO.P,R2,2*%
%TO.N,Net-(T2-B)*%
X101400000Y-94280000D03*
%TD*%
D14*
%TO.P,K4,5*%
%TO.N,PS +5V*%
X91800000Y-138800000D03*
D15*
%TO.P,K4,4*%
%TO.N,Net-(J7-Pin_2)*%
X79550000Y-138850000D03*
%TO.P,K4,3*%
%TO.N,unconnected-(K4-Pad3)*%
X79600000Y-126800000D03*
D14*
%TO.P,K4,2*%
%TO.N,Net-(D4-A)*%
X91800000Y-126800000D03*
D15*
%TO.P,K4,1*%
%TO.N,Net-(J7-Pin_1)*%
X93750000Y-132850000D03*
%TD*%
%TO.P,K3,1*%
%TO.N,Net-(J6-Pin_1)*%
X93700000Y-116900000D03*
D14*
%TO.P,K3,2*%
%TO.N,Net-(D3-A)*%
X91750000Y-110850000D03*
D15*
%TO.P,K3,3*%
%TO.N,unconnected-(K3-Pad3)*%
X79550000Y-110850000D03*
%TO.P,K3,4*%
%TO.N,Net-(J6-Pin_2)*%
X79500000Y-122900000D03*
D14*
%TO.P,K3,5*%
%TO.N,PS +5V*%
X91750000Y-122850000D03*
%TD*%
D15*
%TO.P,K2,1*%
%TO.N,Net-(J5-Pin_1)*%
X93700000Y-101000000D03*
D14*
%TO.P,K2,2*%
%TO.N,Net-(D1-A)*%
X91750000Y-94950000D03*
D15*
%TO.P,K2,3*%
%TO.N,unconnected-(K2-Pad3)*%
X79550000Y-94950000D03*
%TO.P,K2,4*%
%TO.N,Net-(J5-Pin_2)*%
X79500000Y-107000000D03*
D14*
%TO.P,K2,5*%
%TO.N,PS +5V*%
X91750000Y-106950000D03*
%TD*%
D16*
%TO.P,J7,1,Pin_1*%
%TO.N,Net-(J7-Pin_1)*%
X69400000Y-129700000D03*
D17*
%TO.P,J7,2,Pin_2*%
%TO.N,Net-(J7-Pin_2)*%
X69400000Y-134780000D03*
%TD*%
D16*
%TO.P,J6,1,Pin_1*%
%TO.N,Net-(J6-Pin_1)*%
X69295000Y-114455000D03*
D17*
%TO.P,J6,2,Pin_2*%
%TO.N,Net-(J6-Pin_2)*%
X69295000Y-119535000D03*
%TD*%
D16*
%TO.P,J5,1,Pin_1*%
%TO.N,Net-(J5-Pin_1)*%
X69400000Y-97720000D03*
D17*
%TO.P,J5,2,Pin_2*%
%TO.N,Net-(J5-Pin_2)*%
X69400000Y-102800000D03*
%TD*%
D18*
%TO.P,D4,1,K*%
%TO.N,PS +5V*%
X98600000Y-134020000D03*
D13*
%TO.P,D4,2,A*%
%TO.N,Net-(D4-A)*%
X98600000Y-126400000D03*
%TD*%
D18*
%TO.P,D3,1,K*%
%TO.N,PS +5V*%
X98400000Y-118020000D03*
D13*
%TO.P,D3,2,A*%
%TO.N,Net-(D3-A)*%
X98400000Y-110400000D03*
%TD*%
D18*
%TO.P,D1,1,K*%
%TO.N,PS +5V*%
X98600000Y-101900000D03*
D13*
%TO.P,D1,2,A*%
%TO.N,Net-(D1-A)*%
X98600000Y-94280000D03*
%TD*%
D19*
%TO.P,U1,1,GND*%
%TO.N,PS_GND*%
X73975000Y-57655000D03*
%TO.P,U1,2,VDD*%
%TO.N,3.3V*%
X73975000Y-58925000D03*
%TO.P,U1,3,EN*%
%TO.N,EN*%
X73975000Y-60195000D03*
%TO.P,U1,4,SENSOR_VP*%
%TO.N,unconnected-(U1-SENSOR_VP-Pad4)*%
X73975000Y-61465000D03*
%TO.P,U1,5,SENSOR_VN*%
%TO.N,unconnected-(U1-SENSOR_VN-Pad5)*%
X73975000Y-62735000D03*
%TO.P,U1,6,IO34*%
%TO.N,unconnected-(U1-IO34-Pad6)*%
X73975000Y-64005000D03*
%TO.P,U1,7,IO35*%
%TO.N,unconnected-(U1-IO35-Pad7)*%
X73975000Y-65275000D03*
%TO.P,U1,8,IO32*%
%TO.N,unconnected-(U1-IO32-Pad8)*%
X73975000Y-66545000D03*
%TO.P,U1,9,IO33*%
%TO.N,unconnected-(U1-IO33-Pad9)*%
X73975000Y-67815000D03*
%TO.P,U1,10,IO25*%
%TO.N,SW2*%
X73975000Y-69085000D03*
%TO.P,U1,11,IO26*%
%TO.N,SW3*%
X73975000Y-70355000D03*
%TO.P,U1,12,IO27*%
%TO.N,SW4*%
X73975000Y-71625000D03*
%TO.P,U1,13,IO14*%
%TO.N,/RelayCircuit4/ACT-X*%
X73975000Y-72895000D03*
%TO.P,U1,14,IO12*%
%TO.N,unconnected-(U1-IO12-Pad14)*%
X73975000Y-74165000D03*
D20*
%TO.P,U1,15,GND*%
%TO.N,PS_GND*%
X77015000Y-75415000D03*
%TO.P,U1,16,IO13*%
%TO.N,/RelayCircuit3/ACT-X*%
X78285000Y-75415000D03*
%TO.P,U1,17,NC*%
%TO.N,unconnected-(U1-NC-Pad17)*%
X79555000Y-75415000D03*
%TO.P,U1,18,NC*%
%TO.N,unconnected-(U1-NC-Pad18)*%
X80825000Y-75415000D03*
%TO.P,U1,19,NC*%
%TO.N,unconnected-(U1-NC-Pad19)*%
X82095000Y-75415000D03*
%TO.P,U1,20,NC*%
%TO.N,unconnected-(U1-NC-Pad20)*%
X83365000Y-75415000D03*
%TO.P,U1,21,NC*%
%TO.N,unconnected-(U1-NC-Pad21)*%
X84635000Y-75415000D03*
%TO.P,U1,22,NC*%
%TO.N,unconnected-(U1-NC-Pad22)*%
X85905000Y-75415000D03*
%TO.P,U1,23,IO15*%
%TO.N,unconnected-(U1-IO15-Pad23)*%
X87175000Y-75415000D03*
%TO.P,U1,24,IO2*%
%TO.N,unconnected-(U1-IO2-Pad24)*%
X88445000Y-75415000D03*
D19*
%TO.P,U1,25,IO0*%
%TO.N,IN0*%
X91475000Y-74165000D03*
%TO.P,U1,26,IO4*%
%TO.N,/RelayCircuit1/ACT-X*%
X91475000Y-72895000D03*
%TO.P,U1,27,IO16*%
%TO.N,unconnected-(U1-IO16-Pad27)*%
X91475000Y-71625000D03*
%TO.P,U1,28,IO17*%
%TO.N,unconnected-(U1-IO17-Pad28)*%
X91475000Y-70355000D03*
%TO.P,U1,29,IO5*%
%TO.N,/RelayCircuit2/ACT-X*%
X91475000Y-69085000D03*
%TO.P,U1,30,IO18*%
%TO.N,unconnected-(U1-IO18-Pad30)*%
X91475000Y-67815000D03*
%TO.P,U1,31,IO19*%
%TO.N,unconnected-(U1-IO19-Pad31)*%
X91475000Y-66545000D03*
%TO.P,U1,32,NC*%
%TO.N,unconnected-(U1-NC-Pad32)*%
X91475000Y-65275000D03*
%TO.P,U1,33,IO21*%
%TO.N,unconnected-(U1-IO21-Pad33)*%
X91475000Y-64005000D03*
%TO.P,U1,34,RXD0/IO3*%
%TO.N,RX*%
X91475000Y-62735000D03*
%TO.P,U1,35,TXD0/IO1*%
%TO.N,TX*%
X91475000Y-61465000D03*
%TO.P,U1,36,IO22*%
%TO.N,SW1*%
X91475000Y-60195000D03*
%TO.P,U1,37,IO23*%
%TO.N,unconnected-(U1-IO23-Pad37)*%
X91475000Y-58925000D03*
%TO.P,U1,38,GND*%
%TO.N,PS_GND*%
X91475000Y-57655000D03*
D21*
%TO.P,U1,39,GND*%
X79825000Y-63975000D03*
D22*
X79825000Y-64675000D03*
D21*
X79825000Y-65375000D03*
D22*
X79825000Y-66075000D03*
D21*
X79825000Y-66775000D03*
D22*
X80525000Y-63975000D03*
X80525000Y-65375000D03*
X80525000Y-66775000D03*
X81200000Y-64675000D03*
X81200000Y-66075000D03*
D21*
X81225000Y-63975000D03*
X81225000Y-65375000D03*
D23*
X81225000Y-65375000D03*
D21*
X81225000Y-66775000D03*
D22*
X81925000Y-63975000D03*
X81925000Y-65375000D03*
X81925000Y-66775000D03*
D21*
X82625000Y-63975000D03*
D22*
X82625000Y-64675000D03*
D21*
X82625000Y-65375000D03*
D22*
X82625000Y-66075000D03*
D21*
X82625000Y-66775000D03*
%TD*%
D24*
%TO.P,C1,1*%
%TO.N,PS +5V*%
X66125000Y-59562500D03*
%TO.P,C1,2*%
%TO.N,PS_GND*%
X66125000Y-57837500D03*
%TD*%
D25*
%TO.P,U2,1,GND*%
%TO.N,PS_GND*%
X66350000Y-68450000D03*
%TO.P,U2,2,VO*%
%TO.N,3.3V*%
X68650000Y-68450000D03*
D26*
X68650000Y-62150000D03*
D25*
%TO.P,U2,3,VI*%
%TO.N,PS +5V*%
X70950000Y-68450000D03*
%TD*%
D27*
%TO.P,J2,1,Pin_1*%
%TO.N,SW4*%
X98850000Y-73150000D03*
D28*
%TO.P,J2,2,Pin_2*%
%TO.N,SW3*%
X98850000Y-70610000D03*
%TO.P,J2,3,Pin_3*%
%TO.N,SW2*%
X98850000Y-68070000D03*
%TO.P,J2,4,Pin_4*%
%TO.N,SW1*%
X98850000Y-65530000D03*
%TD*%
D15*
%TO.P,K1,1*%
%TO.N,Net-(J3-Pin_1)*%
X93700000Y-85025000D03*
D14*
%TO.P,K1,2*%
%TO.N,Net-(D2-A)*%
X91750000Y-78975000D03*
D15*
%TO.P,K1,3*%
%TO.N,unconnected-(K1-Pad3)*%
X79550000Y-78975000D03*
%TO.P,K1,4*%
%TO.N,Net-(J3-Pin_2)*%
X79500000Y-91025000D03*
D14*
%TO.P,K1,5*%
%TO.N,PS +5V*%
X91750000Y-90975000D03*
%TD*%
D12*
%TO.P,R1,1*%
%TO.N,/RelayCircuit1/ACT-X*%
X101360000Y-77720000D03*
D13*
%TO.P,R1,2*%
%TO.N,Net-(T1-B)*%
X101360000Y-85340000D03*
%TD*%
D18*
%TO.P,D2,1,K*%
%TO.N,PS +5V*%
X98560000Y-85315000D03*
D13*
%TO.P,D2,2,A*%
%TO.N,Net-(D2-A)*%
X98560000Y-77695000D03*
%TD*%
D10*
%TO.P,T1,1,E*%
%TO.N,PS_GND*%
X100475000Y-90925000D03*
D11*
%TO.P,T1,2,B*%
%TO.N,Net-(T1-B)*%
X100475000Y-89655000D03*
%TO.P,T1,3,C*%
%TO.N,Net-(D2-A)*%
X100475000Y-88385000D03*
%TD*%
D16*
%TO.P,J3,1,Pin_1*%
%TO.N,Net-(J3-Pin_1)*%
X69395000Y-82630000D03*
D17*
%TO.P,J3,2,Pin_2*%
%TO.N,Net-(J3-Pin_2)*%
X69395000Y-87710000D03*
%TD*%
D29*
%TO.P,J4,1,Pin_1*%
%TO.N,RX*%
X95545000Y-61515000D03*
D30*
%TO.P,J4,2,Pin_2*%
%TO.N,TX*%
X95545000Y-58975000D03*
%TO.P,J4,3,Pin_3*%
%TO.N,IN0*%
X98085000Y-61515000D03*
%TO.P,J4,4,Pin_4*%
%TO.N,EN*%
X98085000Y-58975000D03*
%TO.P,J4,5,Pin_5*%
%TO.N,3.3V*%
X100625000Y-61515000D03*
%TO.P,J4,6,Pin_6*%
%TO.N,PS_GND*%
X100625000Y-58975000D03*
%TD*%
D24*
%TO.P,C2,1*%
%TO.N,3.3V*%
X70205000Y-59565000D03*
%TO.P,C2,2*%
%TO.N,PS_GND*%
X70205000Y-57840000D03*
%TD*%
D27*
%TO.P,J1,1,Pin_1*%
%TO.N,PS +5V*%
X67940000Y-73660000D03*
D28*
%TO.P,J1,2,Pin_2*%
%TO.N,PS_GND*%
X67940000Y-76200000D03*
%TD*%
D31*
%TO.N,/RelayCircuit1/ACT-X*%
X93400000Y-74575000D03*
%TO.N,SW4*%
X76100000Y-72000000D03*
X96300000Y-72900000D03*
%TO.N,/RelayCircuit4/ACT-X*%
X72300000Y-73400000D03*
%TO.N,/RelayCircuit3/ACT-X*%
X90200000Y-82100000D03*
%TO.N,/RelayCircuit2/ACT-X*%
X93600000Y-72600000D03*
%TO.N,SW3*%
X76100000Y-70800000D03*
X94400000Y-70800000D03*
%TO.N,SW2*%
X76000000Y-69300000D03*
X94200000Y-68400000D03*
%TO.N,SW1*%
X93100000Y-60100000D03*
X94400000Y-65500000D03*
%TO.N,PS_GND*%
X68100000Y-78850000D03*
X75175000Y-75400000D03*
X77975000Y-62250000D03*
X88800000Y-59075000D03*
X76425000Y-57900000D03*
X84725000Y-61675000D03*
%TD*%
D32*
%TO.N,/RelayCircuit1/ACT-X*%
X92525000Y-72895000D02*
X93400000Y-73770000D01*
X91475000Y-72895000D02*
X92525000Y-72895000D01*
X93400000Y-73770000D02*
X93400000Y-74575000D01*
%TO.N,SW4*%
X98850000Y-73150000D02*
X96550000Y-73150000D01*
X76100000Y-72000000D02*
X74350000Y-72000000D01*
X96550000Y-73150000D02*
X96300000Y-72900000D01*
X74350000Y-72000000D02*
X73975000Y-71625000D01*
%TO.N,/RelayCircuit4/ACT-X*%
X72300000Y-73400000D02*
X72805000Y-72895000D01*
X72805000Y-72895000D02*
X73975000Y-72895000D01*
%TO.N,/RelayCircuit3/ACT-X*%
X78285000Y-75415000D02*
X78285000Y-76465000D01*
X78285000Y-76465000D02*
X75800000Y-78950000D01*
X76100000Y-81000000D02*
X77400000Y-82300000D01*
X89200000Y-82000000D02*
X90100000Y-82000000D01*
X75800000Y-78950000D02*
X75800000Y-81000000D01*
X88900000Y-82300000D02*
X89200000Y-82000000D01*
X75800000Y-81000000D02*
X76100000Y-81000000D01*
X90100000Y-82000000D02*
X90200000Y-82100000D01*
X77400000Y-82300000D02*
X88900000Y-82300000D01*
%TO.N,PS +5V*%
X66200000Y-84895000D02*
X66200000Y-97055000D01*
X67940000Y-73660000D02*
X69390000Y-75110000D01*
X66200000Y-82525000D02*
X66200000Y-84895000D01*
X69390000Y-75110000D02*
X69390000Y-79335000D01*
X66200000Y-84895000D02*
X69054874Y-84895000D01*
X69390000Y-79335000D02*
X66200000Y-82525000D01*
X69054874Y-84895000D02*
X73334874Y-89175000D01*
X89950000Y-89175000D02*
X91750000Y-90975000D01*
X73334874Y-89175000D02*
X89950000Y-89175000D01*
X66100000Y-100045000D02*
X66100000Y-97000000D01*
X67645000Y-100200000D02*
X66255000Y-100200000D01*
X66255000Y-100200000D02*
X66100000Y-100045000D01*
X91750000Y-106950000D02*
X87350000Y-102550000D01*
X87350000Y-102550000D02*
X72037968Y-102550000D01*
X72037968Y-102550000D02*
X69987968Y-100500000D01*
X67945000Y-100500000D02*
X67645000Y-100200000D01*
X69987968Y-100500000D02*
X67945000Y-100500000D01*
X66100000Y-100045000D02*
X66100000Y-116745000D01*
X66100000Y-116745000D02*
X66100000Y-116900000D01*
X66100000Y-116900000D02*
X69547968Y-116900000D01*
X73597968Y-120950000D02*
X89850000Y-120950000D01*
X89850000Y-120950000D02*
X91750000Y-122850000D01*
X69547968Y-116900000D02*
X73597968Y-120950000D01*
X66100000Y-116745000D02*
X66100000Y-129700000D01*
X66100000Y-129700000D02*
X67750000Y-131350000D01*
X67750000Y-131350000D02*
X68857968Y-131350000D01*
X68857968Y-131350000D02*
X74507968Y-137000000D01*
X74507968Y-137000000D02*
X90000000Y-137000000D01*
X90000000Y-137000000D02*
X91800000Y-138800000D01*
%TO.N,/RelayCircuit2/ACT-X*%
X93600000Y-70160000D02*
X93600000Y-72600000D01*
X92525000Y-69085000D02*
X93600000Y-70160000D01*
X91475000Y-69085000D02*
X92525000Y-69085000D01*
%TO.N,PS_GND*%
X100600000Y-139400000D02*
X100375000Y-139400000D01*
X100375000Y-139400000D02*
X99980000Y-139005000D01*
X101187437Y-139005000D02*
X103050000Y-137142437D01*
X99980000Y-139005000D02*
X101187437Y-139005000D01*
X103050000Y-137142437D02*
X103050000Y-126160000D01*
X103050000Y-126160000D02*
X100360000Y-123470000D01*
%TO.N,Net-(T4-B)*%
X101400000Y-126390000D02*
X102550000Y-127540000D01*
X102550000Y-136875000D02*
X101295000Y-138130000D01*
X101295000Y-138130000D02*
X100600000Y-138130000D01*
X102550000Y-127540000D02*
X102550000Y-136875000D01*
%TO.N,Net-(D4-A)*%
X100600000Y-136860000D02*
X100250000Y-136510000D01*
X100250000Y-128050000D02*
X98600000Y-126400000D01*
X100250000Y-136510000D02*
X100250000Y-128050000D01*
X98600000Y-126400000D02*
X92200000Y-126400000D01*
X92200000Y-126400000D02*
X91800000Y-126800000D01*
%TO.N,PS +5V*%
X98600000Y-134020000D02*
X98600000Y-135294975D01*
X95094975Y-138800000D02*
X91800000Y-138800000D01*
X98600000Y-135294975D02*
X95094975Y-138800000D01*
X98400000Y-118020000D02*
X98400000Y-119194975D01*
X98400000Y-119194975D02*
X94744975Y-122850000D01*
X94744975Y-122850000D02*
X91750000Y-122850000D01*
%TO.N,PS_GND*%
X100360000Y-123470000D02*
X100585000Y-123470000D01*
X100585000Y-123470000D02*
X102850000Y-121205000D01*
X102850000Y-121205000D02*
X102850000Y-109890000D01*
X102850000Y-109890000D02*
X100200000Y-107240000D01*
%TO.N,Net-(T3-B)*%
X100360000Y-122200000D02*
X100552437Y-122200000D01*
X102350000Y-111550000D02*
X101200000Y-110400000D01*
X100552437Y-122200000D02*
X102350000Y-120402437D01*
X102350000Y-120402437D02*
X102350000Y-111550000D01*
%TO.N,Net-(D3-A)*%
X98400000Y-110400000D02*
X100050000Y-112050000D01*
X100050000Y-112050000D02*
X100050000Y-120620000D01*
X100050000Y-120620000D02*
X100360000Y-120930000D01*
X91750000Y-110850000D02*
X97950000Y-110850000D01*
X97950000Y-110850000D02*
X98400000Y-110400000D01*
%TO.N,Net-(D1-A)*%
X100200000Y-104700000D02*
X100200000Y-95880000D01*
X100200000Y-95880000D02*
X98600000Y-94280000D01*
%TO.N,PS_GND*%
X100200000Y-107240000D02*
X100392437Y-107240000D01*
X100392437Y-107240000D02*
X103050000Y-104582437D01*
X103050000Y-104582437D02*
X103050000Y-93500000D01*
X103050000Y-93500000D02*
X100475000Y-90925000D01*
%TO.N,Net-(T2-B)*%
X100200000Y-105970000D02*
X100425000Y-105970000D01*
X102550000Y-103845000D02*
X102550000Y-95430000D01*
X102550000Y-95430000D02*
X101400000Y-94280000D01*
X100425000Y-105970000D02*
X102550000Y-103845000D01*
%TO.N,PS +5V*%
X98600000Y-101900000D02*
X98600000Y-103094975D01*
X98600000Y-103094975D02*
X94744975Y-106950000D01*
X94744975Y-106950000D02*
X91750000Y-106950000D01*
%TO.N,Net-(D1-A)*%
X98600000Y-94280000D02*
X92420000Y-94280000D01*
X92420000Y-94280000D02*
X91750000Y-94950000D01*
%TO.N,SW3*%
X98850000Y-70610000D02*
X94590000Y-70610000D01*
X94590000Y-70610000D02*
X94400000Y-70800000D01*
X74420000Y-70800000D02*
X73975000Y-70355000D01*
X76100000Y-70800000D02*
X74420000Y-70800000D01*
%TO.N,SW2*%
X98850000Y-68070000D02*
X94530000Y-68070000D01*
X74190000Y-69300000D02*
X73975000Y-69085000D01*
X94530000Y-68070000D02*
X94200000Y-68400000D01*
X76000000Y-69300000D02*
X74190000Y-69300000D01*
%TO.N,SW1*%
X91570000Y-60100000D02*
X91475000Y-60195000D01*
X98850000Y-65530000D02*
X94430000Y-65530000D01*
X94430000Y-65530000D02*
X94400000Y-65500000D01*
X93100000Y-60100000D02*
X91570000Y-60100000D01*
D33*
%TO.N,Net-(J7-Pin_2)*%
X69400000Y-134780000D02*
X73470000Y-138850000D01*
X73470000Y-138850000D02*
X79550000Y-138850000D01*
%TO.N,Net-(J7-Pin_1)*%
X69400000Y-129700000D02*
X72550000Y-132850000D01*
X72550000Y-132850000D02*
X93750000Y-132850000D01*
%TO.N,Net-(J6-Pin_2)*%
X69295000Y-119535000D02*
X72260000Y-122500000D01*
X72260000Y-122500000D02*
X79100000Y-122500000D01*
X79100000Y-122500000D02*
X79500000Y-122900000D01*
%TO.N,Net-(J6-Pin_1)*%
X69295000Y-114455000D02*
X71740000Y-116900000D01*
X71740000Y-116900000D02*
X93700000Y-116900000D01*
%TO.N,Net-(J5-Pin_2)*%
X69400000Y-102800000D02*
X73600000Y-107000000D01*
X73600000Y-107000000D02*
X79500000Y-107000000D01*
%TO.N,Net-(J5-Pin_1)*%
X69400000Y-97720000D02*
X72680000Y-101000000D01*
X72680000Y-101000000D02*
X93700000Y-101000000D01*
%TO.N,Net-(J3-Pin_1)*%
X69395000Y-82630000D02*
X71790000Y-85025000D01*
X71790000Y-85025000D02*
X93700000Y-85025000D01*
%TO.N,Net-(J3-Pin_2)*%
X69395000Y-87710000D02*
X72710000Y-91025000D01*
X72710000Y-91025000D02*
X79500000Y-91025000D01*
D34*
%TO.N,PS +5V*%
X66125000Y-59562500D02*
X67412500Y-60850000D01*
X67412500Y-60850000D02*
X70388642Y-60850000D01*
D32*
X91750000Y-90975000D02*
X97400000Y-90975000D01*
X67940000Y-71460000D02*
X70950000Y-68450000D01*
D34*
X70388642Y-60850000D02*
X70950000Y-61411358D01*
D32*
X67940000Y-73660000D02*
X67940000Y-71460000D01*
X97400000Y-90975000D02*
X98560000Y-89815000D01*
X98560000Y-89815000D02*
X98560000Y-85315000D01*
D34*
X70950000Y-61411358D02*
X70950000Y-68450000D01*
D32*
%TO.N,PS_GND*%
X67940000Y-78690000D02*
X68100000Y-78850000D01*
X77000000Y-75400000D02*
X77015000Y-75415000D01*
D34*
X90220000Y-57655000D02*
X88800000Y-59075000D01*
D32*
X67940000Y-76200000D02*
X67940000Y-78690000D01*
D34*
X99475000Y-60125000D02*
X97368654Y-60125000D01*
X77015000Y-75415000D02*
X77015000Y-69585000D01*
X96695000Y-58498654D02*
X95851346Y-57655000D01*
X76180000Y-57655000D02*
X73975000Y-57655000D01*
D32*
X75175000Y-75400000D02*
X77000000Y-75400000D01*
D34*
X84725000Y-61875000D02*
X82625000Y-63975000D01*
X73790000Y-57840000D02*
X73975000Y-57655000D01*
X76425000Y-57900000D02*
X76180000Y-57655000D01*
X95851346Y-57655000D02*
X91475000Y-57655000D01*
X78100000Y-62250000D02*
X77975000Y-62250000D01*
D32*
X66350000Y-74970000D02*
X66350000Y-68450000D01*
X67580000Y-76200000D02*
X66350000Y-74970000D01*
D34*
X91475000Y-57655000D02*
X90220000Y-57655000D01*
X77015000Y-69585000D02*
X79825000Y-66775000D01*
X96695000Y-59451346D02*
X96695000Y-58498654D01*
X70205000Y-57840000D02*
X73790000Y-57840000D01*
X79825000Y-63975000D02*
X78100000Y-62250000D01*
X70202500Y-57837500D02*
X70205000Y-57840000D01*
D32*
X67940000Y-76200000D02*
X67580000Y-76200000D01*
D34*
X97368654Y-60125000D02*
X96695000Y-59451346D01*
X84725000Y-61675000D02*
X84725000Y-61875000D01*
X100625000Y-58975000D02*
X99475000Y-60125000D01*
X66125000Y-57837500D02*
X70202500Y-57837500D01*
%TO.N,Net-(D2-A)*%
X99660000Y-87570000D02*
X100475000Y-88385000D01*
X98560000Y-77695000D02*
X93030000Y-77695000D01*
X99660000Y-78795000D02*
X99660000Y-87570000D01*
X93030000Y-77695000D02*
X91750000Y-78975000D01*
X98560000Y-77695000D02*
X99660000Y-78795000D01*
%TO.N,Net-(T1-B)*%
X100475000Y-89655000D02*
X100596726Y-89655000D01*
X102159999Y-88091727D02*
X102159999Y-86139999D01*
X102159999Y-86139999D02*
X101360000Y-85340000D01*
X100596726Y-89655000D02*
X102159999Y-88091727D01*
%TO.N,3.3V*%
X82050000Y-58925000D02*
X83625000Y-57350000D01*
X65350000Y-60750000D02*
X65350000Y-59033278D01*
X69317500Y-58677500D02*
X70205000Y-59565000D01*
X73975000Y-58925000D02*
X82050000Y-58925000D01*
X70845000Y-58925000D02*
X73975000Y-58925000D01*
X92525000Y-57125000D02*
X100075000Y-57125000D01*
X100075000Y-57125000D02*
X100350000Y-57400000D01*
X70205000Y-59565000D02*
X70845000Y-58925000D01*
X92525000Y-56905000D02*
X92525000Y-57125000D01*
X88584314Y-57350000D02*
X88809314Y-57125000D01*
X102650000Y-57975000D02*
X102650000Y-59490000D01*
X68650000Y-62150000D02*
X68650000Y-68450000D01*
X65350000Y-59033278D02*
X65705778Y-58677500D01*
X88809314Y-57125000D02*
X90425000Y-57125000D01*
X66750000Y-62150000D02*
X65350000Y-60750000D01*
X102650000Y-59490000D02*
X100625000Y-61515000D01*
X100350000Y-57400000D02*
X102075000Y-57400000D01*
X90425000Y-56905000D02*
X92525000Y-56905000D01*
X102075000Y-57400000D02*
X102650000Y-57975000D01*
X65705778Y-58677500D02*
X69317500Y-58677500D01*
X68650000Y-62150000D02*
X66750000Y-62150000D01*
X83625000Y-57350000D02*
X88584314Y-57350000D01*
X90425000Y-57125000D02*
X90425000Y-56905000D01*
%TO.N,TX*%
X95545000Y-58975000D02*
X93055000Y-61465000D01*
X93055000Y-61465000D02*
X91475000Y-61465000D01*
%TO.N,RX*%
X94325000Y-62735000D02*
X91475000Y-62735000D01*
X95545000Y-61515000D02*
X95545000Y-61755000D01*
X95545000Y-61755000D02*
X95225000Y-62075000D01*
X95545000Y-61515000D02*
X94325000Y-62735000D01*
%TO.N,EN*%
X87050000Y-71540000D02*
X87050000Y-60195000D01*
X101775000Y-58498654D02*
X101775000Y-59475000D01*
X101101346Y-57825000D02*
X101775000Y-58498654D01*
X87050000Y-60195000D02*
X73975000Y-60195000D01*
X99475000Y-61038654D02*
X99475000Y-61991346D01*
X98085000Y-58975000D02*
X99235000Y-57825000D01*
X102550000Y-74625000D02*
X101600000Y-75575000D01*
X100148654Y-60365000D02*
X99475000Y-61038654D01*
X100933654Y-63450000D02*
X102325000Y-63450000D01*
X99235000Y-57825000D02*
X101101346Y-57825000D01*
X102550000Y-63675000D02*
X102550000Y-74625000D01*
X101600000Y-75575000D02*
X91085000Y-75575000D01*
X101775000Y-59475000D02*
X100885000Y-60365000D01*
X99475000Y-61991346D02*
X100933654Y-63450000D01*
X100885000Y-60365000D02*
X100148654Y-60365000D01*
X102325000Y-63450000D02*
X102550000Y-63675000D01*
X91085000Y-75575000D02*
X87050000Y-71540000D01*
%TO.N,IN0*%
X100450000Y-75100000D02*
X100375000Y-75175000D01*
X100450000Y-64725000D02*
X100450000Y-75100000D01*
X100375000Y-75175000D02*
X92485000Y-75175000D01*
X92485000Y-75175000D02*
X91475000Y-74165000D01*
X98085000Y-61515000D02*
X98085000Y-62360000D01*
X98085000Y-62360000D02*
X100450000Y-64725000D01*
%TD*%
M02*
