%TF.GenerationSoftware,KiCad,Pcbnew,8.0.7*%
%TF.CreationDate,2025-05-26T13:39:26+05:30*%
%TF.ProjectId,smart_board,736d6172-745f-4626-9f61-72642e6b6963,rev?*%
%TF.SameCoordinates,Original*%
%TF.FileFunction,Profile,NP*%
%FSLAX46Y46*%
G04 Gerber Fmt 4.6, Leading zero omitted, Abs format (unit mm)*
G04 Created by KiCad (PCBNEW 8.0.7) date 2025-05-26 13:39:26*
%MOMM*%
%LPD*%
G01*
G04 APERTURE LIST*
%TA.AperFunction,Profile*%
%ADD10C,0.050000*%
%TD*%
G04 APERTURE END LIST*
D10*
X71255635Y-92755634D02*
G75*
G02*
X68144365Y-92755634I-1555635J0D01*
G01*
X68144365Y-92755634D02*
G75*
G02*
X71255635Y-92755634I1555635J0D01*
G01*
X70255635Y-124755634D02*
G75*
G02*
X67144365Y-124755634I-1555635J0D01*
G01*
X67144365Y-124755634D02*
G75*
G02*
X70255635Y-124755634I1555635J0D01*
G01*
X103500000Y-140900000D02*
X64400000Y-140900000D01*
X64300000Y-140800000D01*
X64300000Y-56500000D01*
X103500000Y-56500000D01*
X103500000Y-140900000D01*
X97225000Y-136175000D02*
X97200000Y-136200000D01*
X92850000Y-136200000D01*
X92850000Y-135075000D01*
X92875000Y-135050000D01*
X95950000Y-135050000D01*
X95975000Y-135075000D01*
X95975000Y-130175000D01*
X92850000Y-130175000D01*
X92850000Y-129050000D01*
X97225000Y-129050000D01*
X97225000Y-136175000D01*
X96825000Y-120275000D02*
X96800000Y-120300000D01*
X92450000Y-120300000D01*
X92450000Y-119175000D01*
X92475000Y-119150000D01*
X95550000Y-119150000D01*
X95575000Y-119175000D01*
X95575000Y-114275000D01*
X92450000Y-114275000D01*
X92450000Y-113150000D01*
X96825000Y-113150000D01*
X96825000Y-120275000D01*
X96825000Y-104375000D02*
X96800000Y-104400000D01*
X92450000Y-104400000D01*
X92450000Y-103275000D01*
X92475000Y-103250000D01*
X95550000Y-103250000D01*
X95575000Y-103275000D01*
X95575000Y-98375000D01*
X92450000Y-98375000D01*
X92450000Y-97250000D01*
X96825000Y-97250000D01*
X96825000Y-104375000D01*
X96875000Y-88575000D02*
X96850000Y-88600000D01*
X92500000Y-88600000D01*
X92500000Y-87475000D01*
X92525000Y-87450000D01*
X95600000Y-87450000D01*
X95625000Y-87475000D01*
X95625000Y-82575000D01*
X92500000Y-82575000D01*
X92500000Y-81450000D01*
X96875000Y-81450000D01*
X96875000Y-88575000D01*
M02*
