%TF.GenerationSoftware,KiCad,Pcbnew,8.0.7*%
%TF.CreationDate,2025-05-26T13:39:25+05:30*%
%TF.ProjectId,smart_board,736d6172-745f-4626-9f61-72642e6b6963,rev?*%
%TF.SameCoordinates,Original*%
%TF.FileFunction,Copper,L2,Bot*%
%TF.FilePolarity,Positive*%
%FSLAX46Y46*%
G04 Gerber Fmt 4.6, Leading zero omitted, Abs format (unit mm)*
G04 Created by KiCad (PCBNEW 8.0.7) date 2025-05-26 13:39:25*
%MOMM*%
%LPD*%
G01*
G04 APERTURE LIST*
%TA.AperFunction,ComponentPad*%
%ADD10R,1.500000X1.050000*%
%TD*%
%TA.AperFunction,ComponentPad*%
%ADD11O,1.500000X1.050000*%
%TD*%
%TA.AperFunction,ComponentPad*%
%ADD12C,1.600000*%
%TD*%
%TA.AperFunction,ComponentPad*%
%ADD13O,1.600000X1.600000*%
%TD*%
%TA.AperFunction,ComponentPad*%
%ADD14C,2.500000*%
%TD*%
%TA.AperFunction,ComponentPad*%
%ADD15C,3.000000*%
%TD*%
%TA.AperFunction,ComponentPad*%
%ADD16R,2.600000X2.600000*%
%TD*%
%TA.AperFunction,ComponentPad*%
%ADD17C,2.600000*%
%TD*%
%TA.AperFunction,ComponentPad*%
%ADD18R,1.600000X1.600000*%
%TD*%
%TA.AperFunction,HeatsinkPad*%
%ADD19C,0.600000*%
%TD*%
%TA.AperFunction,ComponentPad*%
%ADD20R,2.200000X2.200000*%
%TD*%
%TA.AperFunction,ComponentPad*%
%ADD21C,2.200000*%
%TD*%
%TA.AperFunction,ComponentPad*%
%ADD22R,1.700000X1.700000*%
%TD*%
%TA.AperFunction,ComponentPad*%
%ADD23O,1.700000X1.700000*%
%TD*%
%TA.AperFunction,ViaPad*%
%ADD24C,0.600000*%
%TD*%
%TA.AperFunction,Conductor*%
%ADD25C,0.300000*%
%TD*%
%TA.AperFunction,Conductor*%
%ADD26C,0.200000*%
%TD*%
G04 APERTURE END LIST*
D10*
%TO.P,T4,1,E*%
%TO.N,PS_GND*%
X100600000Y-139400000D03*
D11*
%TO.P,T4,2,B*%
%TO.N,Net-(T4-B)*%
X100600000Y-138130000D03*
%TO.P,T4,3,C*%
%TO.N,Net-(D4-A)*%
X100600000Y-136860000D03*
%TD*%
D10*
%TO.P,T3,1,E*%
%TO.N,PS_GND*%
X100360000Y-123470000D03*
D11*
%TO.P,T3,2,B*%
%TO.N,Net-(T3-B)*%
X100360000Y-122200000D03*
%TO.P,T3,3,C*%
%TO.N,Net-(D3-A)*%
X100360000Y-120930000D03*
%TD*%
D10*
%TO.P,T2,1,E*%
%TO.N,PS_GND*%
X100200000Y-107240000D03*
D11*
%TO.P,T2,2,B*%
%TO.N,Net-(T2-B)*%
X100200000Y-105970000D03*
%TO.P,T2,3,C*%
%TO.N,Net-(D1-A)*%
X100200000Y-104700000D03*
%TD*%
D12*
%TO.P,R4,1*%
%TO.N,/RelayCircuit4/ACT-X*%
X101400000Y-134010000D03*
D13*
%TO.P,R4,2*%
%TO.N,Net-(T4-B)*%
X101400000Y-126390000D03*
%TD*%
D12*
%TO.P,R3,1*%
%TO.N,/RelayCircuit3/ACT-X*%
X101200000Y-118020000D03*
D13*
%TO.P,R3,2*%
%TO.N,Net-(T3-B)*%
X101200000Y-110400000D03*
%TD*%
D12*
%TO.P,R2,1*%
%TO.N,/RelayCircuit2/ACT-X*%
X101400000Y-101900000D03*
D13*
%TO.P,R2,2*%
%TO.N,Net-(T2-B)*%
X101400000Y-94280000D03*
%TD*%
D14*
%TO.P,K4,5*%
%TO.N,PS +5V*%
X91800000Y-138800000D03*
D15*
%TO.P,K4,4*%
%TO.N,Net-(J7-Pin_2)*%
X79550000Y-138850000D03*
%TO.P,K4,3*%
%TO.N,unconnected-(K4-Pad3)*%
X79600000Y-126800000D03*
D14*
%TO.P,K4,2*%
%TO.N,Net-(D4-A)*%
X91800000Y-126800000D03*
D15*
%TO.P,K4,1*%
%TO.N,Net-(J7-Pin_1)*%
X93750000Y-132850000D03*
%TD*%
%TO.P,K3,1*%
%TO.N,Net-(J6-Pin_1)*%
X93700000Y-116900000D03*
D14*
%TO.P,K3,2*%
%TO.N,Net-(D3-A)*%
X91750000Y-110850000D03*
D15*
%TO.P,K3,3*%
%TO.N,unconnected-(K3-Pad3)*%
X79550000Y-110850000D03*
%TO.P,K3,4*%
%TO.N,Net-(J6-Pin_2)*%
X79500000Y-122900000D03*
D14*
%TO.P,K3,5*%
%TO.N,PS +5V*%
X91750000Y-122850000D03*
%TD*%
D15*
%TO.P,K2,1*%
%TO.N,Net-(J5-Pin_1)*%
X93700000Y-101000000D03*
D14*
%TO.P,K2,2*%
%TO.N,Net-(D1-A)*%
X91750000Y-94950000D03*
D15*
%TO.P,K2,3*%
%TO.N,unconnected-(K2-Pad3)*%
X79550000Y-94950000D03*
%TO.P,K2,4*%
%TO.N,Net-(J5-Pin_2)*%
X79500000Y-107000000D03*
D14*
%TO.P,K2,5*%
%TO.N,PS +5V*%
X91750000Y-106950000D03*
%TD*%
D16*
%TO.P,J7,1,Pin_1*%
%TO.N,Net-(J7-Pin_1)*%
X69400000Y-129700000D03*
D17*
%TO.P,J7,2,Pin_2*%
%TO.N,Net-(J7-Pin_2)*%
X69400000Y-134780000D03*
%TD*%
D16*
%TO.P,J6,1,Pin_1*%
%TO.N,Net-(J6-Pin_1)*%
X69295000Y-114455000D03*
D17*
%TO.P,J6,2,Pin_2*%
%TO.N,Net-(J6-Pin_2)*%
X69295000Y-119535000D03*
%TD*%
D16*
%TO.P,J5,1,Pin_1*%
%TO.N,Net-(J5-Pin_1)*%
X69400000Y-97720000D03*
D17*
%TO.P,J5,2,Pin_2*%
%TO.N,Net-(J5-Pin_2)*%
X69400000Y-102800000D03*
%TD*%
D18*
%TO.P,D4,1,K*%
%TO.N,PS +5V*%
X98600000Y-134020000D03*
D13*
%TO.P,D4,2,A*%
%TO.N,Net-(D4-A)*%
X98600000Y-126400000D03*
%TD*%
D18*
%TO.P,D3,1,K*%
%TO.N,PS +5V*%
X98400000Y-118020000D03*
D13*
%TO.P,D3,2,A*%
%TO.N,Net-(D3-A)*%
X98400000Y-110400000D03*
%TD*%
D18*
%TO.P,D1,1,K*%
%TO.N,PS +5V*%
X98600000Y-101900000D03*
D13*
%TO.P,D1,2,A*%
%TO.N,Net-(D1-A)*%
X98600000Y-94280000D03*
%TD*%
D19*
%TO.P,U1,39,GND*%
%TO.N,PS_GND*%
X79825000Y-64675000D03*
X79825000Y-66075000D03*
X80525000Y-63975000D03*
X80525000Y-65375000D03*
X80525000Y-66775000D03*
X81200000Y-64675000D03*
X81200000Y-66075000D03*
X81925000Y-63975000D03*
X81925000Y-65375000D03*
X81925000Y-66775000D03*
X82625000Y-64675000D03*
X82625000Y-66075000D03*
%TD*%
D20*
%TO.P,J2,1,Pin_1*%
%TO.N,SW4*%
X98850000Y-73150000D03*
D21*
%TO.P,J2,2,Pin_2*%
%TO.N,SW3*%
X98850000Y-70610000D03*
%TO.P,J2,3,Pin_3*%
%TO.N,SW2*%
X98850000Y-68070000D03*
%TO.P,J2,4,Pin_4*%
%TO.N,SW1*%
X98850000Y-65530000D03*
%TD*%
D15*
%TO.P,K1,1*%
%TO.N,Net-(J3-Pin_1)*%
X93700000Y-85025000D03*
D14*
%TO.P,K1,2*%
%TO.N,Net-(D2-A)*%
X91750000Y-78975000D03*
D15*
%TO.P,K1,3*%
%TO.N,unconnected-(K1-Pad3)*%
X79550000Y-78975000D03*
%TO.P,K1,4*%
%TO.N,Net-(J3-Pin_2)*%
X79500000Y-91025000D03*
D14*
%TO.P,K1,5*%
%TO.N,PS +5V*%
X91750000Y-90975000D03*
%TD*%
D12*
%TO.P,R1,1*%
%TO.N,/RelayCircuit1/ACT-X*%
X101360000Y-77720000D03*
D13*
%TO.P,R1,2*%
%TO.N,Net-(T1-B)*%
X101360000Y-85340000D03*
%TD*%
D18*
%TO.P,D2,1,K*%
%TO.N,PS +5V*%
X98560000Y-85315000D03*
D13*
%TO.P,D2,2,A*%
%TO.N,Net-(D2-A)*%
X98560000Y-77695000D03*
%TD*%
D10*
%TO.P,T1,1,E*%
%TO.N,PS_GND*%
X100475000Y-90925000D03*
D11*
%TO.P,T1,2,B*%
%TO.N,Net-(T1-B)*%
X100475000Y-89655000D03*
%TO.P,T1,3,C*%
%TO.N,Net-(D2-A)*%
X100475000Y-88385000D03*
%TD*%
D16*
%TO.P,J3,1,Pin_1*%
%TO.N,Net-(J3-Pin_1)*%
X69395000Y-82630000D03*
D17*
%TO.P,J3,2,Pin_2*%
%TO.N,Net-(J3-Pin_2)*%
X69395000Y-87710000D03*
%TD*%
D22*
%TO.P,J4,1,Pin_1*%
%TO.N,RX*%
X95545000Y-61515000D03*
D23*
%TO.P,J4,2,Pin_2*%
%TO.N,TX*%
X95545000Y-58975000D03*
%TO.P,J4,3,Pin_3*%
%TO.N,IN0*%
X98085000Y-61515000D03*
%TO.P,J4,4,Pin_4*%
%TO.N,EN*%
X98085000Y-58975000D03*
%TO.P,J4,5,Pin_5*%
%TO.N,3.3V*%
X100625000Y-61515000D03*
%TO.P,J4,6,Pin_6*%
%TO.N,PS_GND*%
X100625000Y-58975000D03*
%TD*%
D20*
%TO.P,J1,1,Pin_1*%
%TO.N,PS +5V*%
X67940000Y-73660000D03*
D21*
%TO.P,J1,2,Pin_2*%
%TO.N,PS_GND*%
X67940000Y-76200000D03*
%TD*%
D24*
%TO.N,/RelayCircuit1/ACT-X*%
X93400000Y-74575000D03*
%TO.N,SW4*%
X76100000Y-72000000D03*
X96300000Y-72900000D03*
%TO.N,/RelayCircuit4/ACT-X*%
X72300000Y-73400000D03*
%TO.N,/RelayCircuit3/ACT-X*%
X90200000Y-82100000D03*
%TO.N,/RelayCircuit2/ACT-X*%
X93600000Y-72600000D03*
%TO.N,SW3*%
X76100000Y-70800000D03*
X94400000Y-70800000D03*
%TO.N,SW2*%
X76000000Y-69300000D03*
X94200000Y-68400000D03*
%TO.N,SW1*%
X93100000Y-60100000D03*
X94400000Y-65500000D03*
%TO.N,PS_GND*%
X68100000Y-78850000D03*
X75175000Y-75400000D03*
X77975000Y-62250000D03*
X88800000Y-59075000D03*
X76425000Y-57900000D03*
X84725000Y-61675000D03*
%TD*%
D25*
%TO.N,/RelayCircuit1/ACT-X*%
X99125000Y-80300000D02*
X100800000Y-80300000D01*
X93400000Y-74575000D02*
X99125000Y-80300000D01*
X101360000Y-79740000D02*
X101360000Y-77720000D01*
X100800000Y-80300000D02*
X101360000Y-79740000D01*
%TO.N,SW4*%
X76150000Y-71950000D02*
X76100000Y-72000000D01*
X95350000Y-71950000D02*
X76150000Y-71950000D01*
X96300000Y-72900000D02*
X95350000Y-71950000D01*
%TO.N,PS_GND*%
X100475000Y-90925000D02*
X100250000Y-90925000D01*
X100250000Y-90925000D02*
X97225000Y-87900000D01*
X97225000Y-81305025D02*
X96744975Y-80825000D01*
X97225000Y-87900000D02*
X97225000Y-81305025D01*
X96744975Y-80825000D02*
X70075000Y-80825000D01*
X70075000Y-80825000D02*
X68100000Y-78850000D01*
%TO.N,/RelayCircuit4/ACT-X*%
X72300000Y-73900000D02*
X72300000Y-73400000D01*
X68380761Y-77650000D02*
X68550000Y-77650000D01*
X67450000Y-107633704D02*
X67450000Y-78580761D01*
X68550000Y-77650000D02*
X72300000Y-73900000D01*
X91900000Y-132083704D02*
X67450000Y-107633704D01*
X101400000Y-134010000D02*
X98860000Y-136550000D01*
X91900000Y-135744975D02*
X91900000Y-132083704D01*
X67450000Y-78580761D02*
X68380761Y-77650000D01*
X92705025Y-136550000D02*
X91900000Y-135744975D01*
X98860000Y-136550000D02*
X92705025Y-136550000D01*
%TO.N,/RelayCircuit3/ACT-X*%
X90200000Y-82100000D02*
X90200000Y-87162258D01*
X90200000Y-87162258D02*
X97175000Y-94137258D01*
X97175000Y-94137258D02*
X97175000Y-113995000D01*
X97175000Y-113995000D02*
X101200000Y-118020000D01*
%TO.N,/RelayCircuit2/ACT-X*%
X97145000Y-76145000D02*
X101411346Y-76145000D01*
X93600000Y-72600000D02*
X97145000Y-76145000D01*
X101411346Y-76145000D02*
X102550000Y-77283654D01*
X102550000Y-77283654D02*
X102550000Y-100750000D01*
X102550000Y-100750000D02*
X101400000Y-101900000D01*
%TO.N,SW3*%
X94400000Y-70800000D02*
X76100000Y-70800000D01*
%TO.N,SW2*%
X94000000Y-68600000D02*
X76700000Y-68600000D01*
X94200000Y-68400000D02*
X94000000Y-68600000D01*
X76700000Y-68600000D02*
X76000000Y-69300000D01*
%TO.N,SW1*%
X93100000Y-64200000D02*
X93100000Y-60100000D01*
X94400000Y-65500000D02*
X93100000Y-64200000D01*
D26*
%TO.N,PS_GND*%
X77975000Y-62250000D02*
X77975000Y-59450000D01*
D25*
X68100000Y-78850000D02*
X68125000Y-78825000D01*
X71750000Y-78825000D02*
X75175000Y-75400000D01*
D26*
X88800000Y-59075000D02*
X86200000Y-61675000D01*
X77975000Y-59450000D02*
X76425000Y-57900000D01*
D25*
X68125000Y-78825000D02*
X71750000Y-78825000D01*
D26*
X86200000Y-61675000D02*
X84725000Y-61675000D01*
%TD*%
M02*
